<svg width="34" height="33" viewBox="0 0 34 33" fill="none" xmlns="http://www.w3.org/2000/svg">
<path d="M29.5059 0.289062H4.74405C2.60833 0.289062 0.875 2.00862 0.875 4.12737V28.6925C0.875 30.8112 2.60833 32.5308 4.74405 32.5308H29.5059C31.6417 32.5308 33.375 30.8112 33.375 28.6925V4.12737C33.375 2.00862 31.6417 0.289062 29.5059 0.289062ZM26.4107 11.804H24.8631C23.2071 11.804 22.5417 12.1878 22.5417 13.3393V15.6423H26.4107L25.6369 19.4806H22.5417V30.9955H18.6726V19.4806H15.5774V15.6423H18.6726V13.3393C18.6726 10.2686 20.2202 7.96567 23.3155 7.96567C25.5595 7.96567 26.4107 8.73333 26.4107 8.73333V11.804Z" fill="#FBFCF2"/>
</svg>
