<svg width="34" height="34" viewBox="0 0 34 34" fill="none" xmlns="http://www.w3.org/2000/svg">
<path d="M9.77777 0C4.79986 0 0.75 4.17833 0.75 9.31415V24.2168C0.75 29.3526 4.79986 33.5309 9.77777 33.5309H24.2222C29.2001 33.5309 33.25 29.3526 33.25 24.2168V9.31415C33.25 4.17833 29.2001 0 24.2222 0H9.77777ZM9.77777 3.72566H24.2222C27.2086 3.72566 29.6389 6.23303 29.6389 9.31415V24.2168C29.6389 27.2979 27.2086 29.8053 24.2222 29.8053H9.77777C6.79138 29.8053 4.36111 27.2979 4.36111 24.2168V9.31415C4.36111 6.23303 6.79138 3.72566 9.77777 3.72566ZM26.0278 5.58849C25.5489 5.58849 25.0896 5.78475 24.751 6.1341C24.4124 6.48345 24.2222 6.95727 24.2222 7.45132C24.2222 7.94537 24.4124 8.41919 24.751 8.76854C25.0896 9.11789 25.5489 9.31415 26.0278 9.31415C26.5066 9.31415 26.9659 9.11789 27.3045 8.76854C27.6431 8.41919 27.8333 7.94537 27.8333 7.45132C27.8333 6.95727 27.6431 6.48345 27.3045 6.1341C26.9659 5.78475 26.5066 5.58849 26.0278 5.58849ZM17 7.45132C12.0221 7.45132 7.97221 11.6296 7.97221 16.7655C7.97221 21.9013 12.0221 26.0796 17 26.0796C21.9779 26.0796 26.0278 21.9013 26.0278 16.7655C26.0278 11.6296 21.9779 7.45132 17 7.45132ZM17 11.177C19.9864 11.177 22.4166 13.6843 22.4166 16.7655C22.4166 19.8466 19.9864 22.354 17 22.354C14.0136 22.354 11.5833 19.8466 11.5833 16.7655C11.5833 13.6843 14.0136 11.177 17 11.177Z" fill="#FBFCF2"/>
</svg>
